<mxfile host="app.diagrams.net" modified="2023-05-14T08:19:58.833Z" agent="Mozilla/5.0 (Windows NT 10.0; Win64; x64) AppleWebKit/537.36 (KHTML, like Gecko) Chrome/113.0.0.0 Safari/537.36" etag="K0xV--2JbyctdB7EB6BI" version="21.3.0" type="device">
  <diagram name="Página-1" id="ueSri-wwp2AkVgu46HyB">
    <mxGraphModel dx="1781" dy="527" grid="1" gridSize="10" guides="1" tooltips="1" connect="1" arrows="1" fold="1" page="1" pageScale="1" pageWidth="827" pageHeight="1169" math="0" shadow="0">
      <root>
        <mxCell id="0" />
        <mxCell id="1" parent="0" />
        <mxCell id="-SsZPcqCVsz5BQvRAOzl-9" value="" style="whiteSpace=wrap;html=1;aspect=fixed;dashed=1;dashPattern=12 12;strokeColor=none;" vertex="1" parent="1">
          <mxGeometry x="130" y="40" width="540" height="540" as="geometry" />
        </mxCell>
        <mxCell id="-SsZPcqCVsz5BQvRAOzl-26" style="edgeStyle=orthogonalEdgeStyle;rounded=0;orthogonalLoop=1;jettySize=auto;html=1;entryX=0.5;entryY=0;entryDx=0;entryDy=0;" edge="1" parent="1" source="-SsZPcqCVsz5BQvRAOzl-1" target="-SsZPcqCVsz5BQvRAOzl-12">
          <mxGeometry relative="1" as="geometry">
            <mxPoint x="450" y="100" as="targetPoint" />
            <Array as="points">
              <mxPoint x="15" y="90" />
              <mxPoint x="464" y="90" />
            </Array>
          </mxGeometry>
        </mxCell>
        <mxCell id="-SsZPcqCVsz5BQvRAOzl-1" value="Usuario" style="shape=umlActor;verticalLabelPosition=bottom;verticalAlign=top;html=1;" vertex="1" parent="1">
          <mxGeometry y="250" width="30" height="60" as="geometry" />
        </mxCell>
        <mxCell id="-SsZPcqCVsz5BQvRAOzl-53" style="edgeStyle=orthogonalEdgeStyle;rounded=0;orthogonalLoop=1;jettySize=auto;html=1;entryX=1;entryY=0.5;entryDx=0;entryDy=0;exitX=0.4;exitY=0.617;exitDx=0;exitDy=0;exitPerimeter=0;" edge="1" parent="1" source="-SsZPcqCVsz5BQvRAOzl-2" target="-SsZPcqCVsz5BQvRAOzl-17">
          <mxGeometry relative="1" as="geometry">
            <Array as="points">
              <mxPoint x="755" y="287" />
              <mxPoint x="755" y="530" />
            </Array>
          </mxGeometry>
        </mxCell>
        <mxCell id="-SsZPcqCVsz5BQvRAOzl-2" value="Administrador" style="shape=umlActor;verticalLabelPosition=bottom;verticalAlign=top;html=1;" vertex="1" parent="1">
          <mxGeometry x="740" y="250" width="30" height="60" as="geometry" />
        </mxCell>
        <mxCell id="-SsZPcqCVsz5BQvRAOzl-11" value="&lt;b&gt;&lt;font style=&quot;font-size: 18px;&quot;&gt;HostApp&lt;/font&gt;&lt;/b&gt;" style="text;strokeColor=none;fillColor=none;spacingLeft=4;spacingRight=4;overflow=hidden;rotatable=0;points=[[0,0.5],[1,0.5]];portConstraint=eastwest;fontSize=12;whiteSpace=wrap;html=1;align=center;" vertex="1" parent="1">
          <mxGeometry x="240" y="40" width="320" height="30" as="geometry" />
        </mxCell>
        <mxCell id="-SsZPcqCVsz5BQvRAOzl-12" value="Login" style="ellipse;whiteSpace=wrap;html=1;align=center;" vertex="1" parent="1">
          <mxGeometry x="414" y="110" width="100" height="40" as="geometry" />
        </mxCell>
        <mxCell id="-SsZPcqCVsz5BQvRAOzl-13" value="Registro" style="ellipse;whiteSpace=wrap;html=1;align=center;" vertex="1" parent="1">
          <mxGeometry x="270" y="110" width="100" height="40" as="geometry" />
        </mxCell>
        <mxCell id="-SsZPcqCVsz5BQvRAOzl-14" value="Reservar" style="ellipse;whiteSpace=wrap;html=1;align=center;" vertex="1" parent="1">
          <mxGeometry x="220" y="230" width="100" height="40" as="geometry" />
        </mxCell>
        <mxCell id="-SsZPcqCVsz5BQvRAOzl-15" value="Actualizar reserva" style="ellipse;whiteSpace=wrap;html=1;align=center;" vertex="1" parent="1">
          <mxGeometry x="220" y="280" width="100" height="40" as="geometry" />
        </mxCell>
        <mxCell id="-SsZPcqCVsz5BQvRAOzl-16" value="Elimina reserva" style="ellipse;whiteSpace=wrap;html=1;align=center;" vertex="1" parent="1">
          <mxGeometry x="220" y="330" width="100" height="40" as="geometry" />
        </mxCell>
        <mxCell id="-SsZPcqCVsz5BQvRAOzl-17" value="Cerrar sesión" style="ellipse;whiteSpace=wrap;html=1;align=center;" vertex="1" parent="1">
          <mxGeometry x="320" y="510" width="100" height="40" as="geometry" />
        </mxCell>
        <mxCell id="-SsZPcqCVsz5BQvRAOzl-18" value="Crear menú" style="ellipse;whiteSpace=wrap;html=1;align=center;" vertex="1" parent="1">
          <mxGeometry x="440" y="230" width="100" height="40" as="geometry" />
        </mxCell>
        <mxCell id="-SsZPcqCVsz5BQvRAOzl-19" value="Actualizar menú" style="ellipse;whiteSpace=wrap;html=1;align=center;" vertex="1" parent="1">
          <mxGeometry x="440" y="280" width="100" height="40" as="geometry" />
        </mxCell>
        <mxCell id="-SsZPcqCVsz5BQvRAOzl-20" value="Eliminar menú" style="ellipse;whiteSpace=wrap;html=1;align=center;" vertex="1" parent="1">
          <mxGeometry x="440" y="330" width="100" height="40" as="geometry" />
        </mxCell>
        <mxCell id="-SsZPcqCVsz5BQvRAOzl-22" value="Elimina reservas" style="ellipse;whiteSpace=wrap;html=1;align=center;" vertex="1" parent="1">
          <mxGeometry x="440" y="470" width="100" height="40" as="geometry" />
        </mxCell>
        <mxCell id="-SsZPcqCVsz5BQvRAOzl-23" value="Ver reservas" style="ellipse;whiteSpace=wrap;html=1;align=center;" vertex="1" parent="1">
          <mxGeometry x="440" y="400" width="100" height="40" as="geometry" />
        </mxCell>
        <mxCell id="-SsZPcqCVsz5BQvRAOzl-34" value="" style="endArrow=classic;html=1;rounded=0;exitX=0.5;exitY=0.5;exitDx=0;exitDy=0;exitPerimeter=0;" edge="1" parent="1" source="-SsZPcqCVsz5BQvRAOzl-1" target="-SsZPcqCVsz5BQvRAOzl-13">
          <mxGeometry width="50" height="50" relative="1" as="geometry">
            <mxPoint x="390" y="360" as="sourcePoint" />
            <mxPoint x="440" y="310" as="targetPoint" />
            <Array as="points">
              <mxPoint x="15" y="130" />
            </Array>
          </mxGeometry>
        </mxCell>
        <mxCell id="-SsZPcqCVsz5BQvRAOzl-36" value="" style="endArrow=classic;html=1;rounded=0;entryX=0;entryY=1;entryDx=0;entryDy=0;exitX=0.5;exitY=0.5;exitDx=0;exitDy=0;exitPerimeter=0;" edge="1" parent="1" source="-SsZPcqCVsz5BQvRAOzl-1" target="-SsZPcqCVsz5BQvRAOzl-14">
          <mxGeometry width="50" height="50" relative="1" as="geometry">
            <mxPoint x="390" y="360" as="sourcePoint" />
            <mxPoint x="440" y="310" as="targetPoint" />
          </mxGeometry>
        </mxCell>
        <mxCell id="-SsZPcqCVsz5BQvRAOzl-37" value="" style="endArrow=classic;html=1;rounded=0;entryX=0;entryY=0.5;entryDx=0;entryDy=0;" edge="1" parent="1" target="-SsZPcqCVsz5BQvRAOzl-15">
          <mxGeometry width="50" height="50" relative="1" as="geometry">
            <mxPoint x="15" y="280" as="sourcePoint" />
            <mxPoint x="440" y="310" as="targetPoint" />
          </mxGeometry>
        </mxCell>
        <mxCell id="-SsZPcqCVsz5BQvRAOzl-38" value="" style="endArrow=classic;html=1;rounded=0;" edge="1" parent="1" target="-SsZPcqCVsz5BQvRAOzl-16">
          <mxGeometry width="50" height="50" relative="1" as="geometry">
            <mxPoint x="15" y="280" as="sourcePoint" />
            <mxPoint x="440" y="310" as="targetPoint" />
          </mxGeometry>
        </mxCell>
        <mxCell id="-SsZPcqCVsz5BQvRAOzl-39" value="" style="endArrow=classic;html=1;rounded=0;exitX=0.5;exitY=0.5;exitDx=0;exitDy=0;exitPerimeter=0;" edge="1" parent="1" source="-SsZPcqCVsz5BQvRAOzl-1" target="-SsZPcqCVsz5BQvRAOzl-17">
          <mxGeometry width="50" height="50" relative="1" as="geometry">
            <mxPoint x="390" y="360" as="sourcePoint" />
            <mxPoint x="440" y="310" as="targetPoint" />
          </mxGeometry>
        </mxCell>
        <mxCell id="-SsZPcqCVsz5BQvRAOzl-41" value="" style="endArrow=classic;html=1;rounded=0;exitX=0.5;exitY=0.5;exitDx=0;exitDy=0;exitPerimeter=0;" edge="1" parent="1" source="-SsZPcqCVsz5BQvRAOzl-2" target="-SsZPcqCVsz5BQvRAOzl-12">
          <mxGeometry width="50" height="50" relative="1" as="geometry">
            <mxPoint x="390" y="360" as="sourcePoint" />
            <mxPoint x="440" y="310" as="targetPoint" />
            <Array as="points">
              <mxPoint x="760" y="130" />
            </Array>
          </mxGeometry>
        </mxCell>
        <mxCell id="-SsZPcqCVsz5BQvRAOzl-47" value="" style="endArrow=classic;html=1;rounded=0;exitX=0.5;exitY=0.5;exitDx=0;exitDy=0;exitPerimeter=0;" edge="1" parent="1" source="-SsZPcqCVsz5BQvRAOzl-2" target="-SsZPcqCVsz5BQvRAOzl-18">
          <mxGeometry width="50" height="50" relative="1" as="geometry">
            <mxPoint x="390" y="360" as="sourcePoint" />
            <mxPoint x="440" y="310" as="targetPoint" />
          </mxGeometry>
        </mxCell>
        <mxCell id="-SsZPcqCVsz5BQvRAOzl-48" value="" style="endArrow=classic;html=1;rounded=0;exitX=0.5;exitY=0.5;exitDx=0;exitDy=0;exitPerimeter=0;" edge="1" parent="1" source="-SsZPcqCVsz5BQvRAOzl-2" target="-SsZPcqCVsz5BQvRAOzl-19">
          <mxGeometry width="50" height="50" relative="1" as="geometry">
            <mxPoint x="390" y="360" as="sourcePoint" />
            <mxPoint x="440" y="310" as="targetPoint" />
          </mxGeometry>
        </mxCell>
        <mxCell id="-SsZPcqCVsz5BQvRAOzl-49" value="" style="endArrow=classic;html=1;rounded=0;exitX=0.5;exitY=0.5;exitDx=0;exitDy=0;exitPerimeter=0;" edge="1" parent="1" source="-SsZPcqCVsz5BQvRAOzl-2" target="-SsZPcqCVsz5BQvRAOzl-20">
          <mxGeometry width="50" height="50" relative="1" as="geometry">
            <mxPoint x="390" y="360" as="sourcePoint" />
            <mxPoint x="440" y="310" as="targetPoint" />
          </mxGeometry>
        </mxCell>
        <mxCell id="-SsZPcqCVsz5BQvRAOzl-50" value="" style="endArrow=classic;html=1;rounded=0;exitX=0.5;exitY=0.5;exitDx=0;exitDy=0;exitPerimeter=0;" edge="1" parent="1" source="-SsZPcqCVsz5BQvRAOzl-2" target="-SsZPcqCVsz5BQvRAOzl-23">
          <mxGeometry width="50" height="50" relative="1" as="geometry">
            <mxPoint x="390" y="360" as="sourcePoint" />
            <mxPoint x="440" y="310" as="targetPoint" />
          </mxGeometry>
        </mxCell>
        <mxCell id="-SsZPcqCVsz5BQvRAOzl-51" value="" style="endArrow=classic;html=1;rounded=0;exitX=0.5;exitY=0.5;exitDx=0;exitDy=0;exitPerimeter=0;entryX=1;entryY=0.5;entryDx=0;entryDy=0;" edge="1" parent="1" source="-SsZPcqCVsz5BQvRAOzl-2" target="-SsZPcqCVsz5BQvRAOzl-22">
          <mxGeometry width="50" height="50" relative="1" as="geometry">
            <mxPoint x="390" y="360" as="sourcePoint" />
            <mxPoint x="440" y="310" as="targetPoint" />
          </mxGeometry>
        </mxCell>
        <mxCell id="-SsZPcqCVsz5BQvRAOzl-60" value="Ver menús" style="ellipse;whiteSpace=wrap;html=1;align=center;" vertex="1" parent="1">
          <mxGeometry x="220" y="180" width="100" height="40" as="geometry" />
        </mxCell>
        <mxCell id="-SsZPcqCVsz5BQvRAOzl-61" value="" style="endArrow=classic;html=1;rounded=0;" edge="1" parent="1" target="-SsZPcqCVsz5BQvRAOzl-60">
          <mxGeometry width="50" height="50" relative="1" as="geometry">
            <mxPoint x="20" y="280" as="sourcePoint" />
            <mxPoint x="440" y="220" as="targetPoint" />
          </mxGeometry>
        </mxCell>
        <mxCell id="-SsZPcqCVsz5BQvRAOzl-62" value="Ver menús" style="ellipse;whiteSpace=wrap;html=1;align=center;" vertex="1" parent="1">
          <mxGeometry x="440" y="180" width="100" height="40" as="geometry" />
        </mxCell>
        <mxCell id="-SsZPcqCVsz5BQvRAOzl-63" value="" style="endArrow=classic;html=1;rounded=0;entryX=1;entryY=0.5;entryDx=0;entryDy=0;" edge="1" parent="1" target="-SsZPcqCVsz5BQvRAOzl-62">
          <mxGeometry width="50" height="50" relative="1" as="geometry">
            <mxPoint x="750" y="280" as="sourcePoint" />
            <mxPoint x="570" y="220" as="targetPoint" />
          </mxGeometry>
        </mxCell>
      </root>
    </mxGraphModel>
  </diagram>
</mxfile>
